<?xml version="1.0" standalone="no"?>
<!DOCTYPE svg PUBLIC "-//W3C//DTD SVG 1.0//EN" "http://www.w3.org/TR/2001/REC-SVG-20010904/DTD/svg10.dtd">
<svg xmlns="http://www.w3.org/2000/svg" xmlns:xlink="http://www.w3.org/1999/xlink" id="body_1" width="80" height="52">

<g transform="matrix(0.26648307 0 0 0.26648307 0.027540434 -0)">
	<g transform="matrix(0.21314198 0 0 0.21314198 86.60597 -6.4155717)">
		<g transform="matrix(0.1 0 -0 -0.1 0 600)">
            <path d="M3823 5689C 3666 5669 3456 5573 3277 5440C 3144 5341 2944 5148 2837 5015C 2696 4840 2567 4630 2489 4451L2489 4451L2453 4367L2487 4271C 2559 4070 2604 3857 2619 3648C 2623 3579 2630 3517 2634 3511C 2639 3504 2675 3500 2729 3500C 2830 3500 2935 3524 3048 3572L3048 3572L3124 3605L3126 3675C 3132 3867 3261 4015 3517 4125C 3591 4157 3702 4190 3782 4204C 3824 4212 3863 4256 3965 4415C 4365 5035 4367 5625 3969 5690C 3934 5695 3901 5699 3895 5699C 3890 5698 3857 5694 3823 5689z" stroke="none" fill="#FFFFFF" fill-rule="nonzero" />
            <path d="M1325 5338C 1207 5294 1118 5173 1068 4989C 1047 4913 1045 4883 1045 4690C 1045 4508 1049 4458 1068 4364C 1133 4039 1234 3773 1389 3512C 1494 3336 1557 3257 1600 3249C 1879 3193 2095 3125 2275 3035L2275 3035L2402 2973L2441 3032C 2502 3128 2537 3240 2555 3396L2555 3396L2562 3458L2515 3481C 2458 3510 2390 3581 2356 3649C 2310 3738 2297 3818 2304 3970C 2309 4104 2317 4147 2360 4292L2360 4292L2382 4368L2337 4469C 2237 4691 2102 4900 1955 5057C 1850 5170 1763 5237 1642 5298C 1552 5343 1544 5344 1452 5347C 1398 5348 1342 5345 1325 5338z" stroke="none" fill="#FFFFFF" fill-rule="nonzero" />
            <path d="M3953 4166L3861 4155L3797 4080C 3653 3912 3462 3742 3298 3636C 3242 3600 3210 3572 3210 3561C 3210 3536 3276 3431 3332 3366C 3358 3336 3416 3284 3460 3251L3460 3251L3541 3190L3578 3215C 3636 3253 3699 3272 3775 3272C 3954 3274 4126 3186 4318 2994L4318 2994L4420 2891L4531 2879C 4675 2864 5016 2873 5133 2894C 5276 2921 5389 2957 5500 3012C 5632 3076 5734 3172 5769 3264C 5874 3546 5564 3868 5011 4050C 4677 4160 4270 4205 3953 4166z" stroke="none" fill="#FFFFFF" fill-rule="nonzero" />
            <path d="M995 3210C 586 3175 282 3034 189 2836C 44 2529 442 2154 1096 1984C 1350 1918 1660 1889 1905 1908C 1990 1915 2066 1923 2074 1926C 2082 1929 2132 1980 2184 2040C 2329 2205 2514 2363 2680 2466C 2713 2486 2740 2508 2740 2515C 2740 2521 2726 2555 2709 2589C 2673 2661 2545 2797 2462 2852L2462 2852L2409 2888L2338 2851C 2269 2816 2264 2815 2156 2815C 2051 2815 2041 2817 1964 2851C 1845 2903 1747 2973 1632 3088L1632 3088L1528 3191L1457 3199C 1341 3214 1103 3219 995 3210z" stroke="none" fill="#FFFFFF" fill-rule="nonzero" />
            <path d="M3519 3068C 3456 2983 3409 2839 3395 2692L3395 2692L3388 2625L3434 2601C 3491 2571 3560 2498 3594 2432C 3669 2283 3669 2063 3593 1807L3593 1807L3567 1720L3596 1648C 3612 1609 3655 1520 3692 1452C 3884 1101 4123 852 4362 758C 4440 726 4587 726 4651 758C 4754 809 4838 931 4881 1095C 4911 1208 4918 1452 4896 1615C 4857 1913 4749 2232 4594 2512C 4539 2610 4489 2687 4396 2813C 4387 2824 4355 2835 4304 2845C 4066 2887 3855 2956 3660 3055L3660 3055L3550 3110L3519 3068z" stroke="none" fill="#FFFFFF" fill-rule="nonzero" />
            <path d="M3135 2580C 3067 2570 2979 2544 2894 2508L2894 2508L2822 2478L2818 2392C 2815 2324 2808 2294 2788 2254C 2694 2073 2478 1940 2179 1880C 2124 1869 2122 1867 2068 1792C 1640 1192 1555 581 1877 423C 1923 401 1951 395 2024 392C 2289 380 2610 549 2925 864C 3101 1040 3230 1207 3350 1415C 3408 1515 3490 1691 3490 1716C 3490 1725 3476 1771 3459 1818C 3388 2018 3341 2251 3325 2481L3325 2481L3318 2578L3273 2584C 3221 2591 3205 2590 3135 2580z" stroke="none" fill="#FFFFFF" fill-rule="nonzero" />
		</g>
	</g>
	<g transform="matrix(3.7183936 0 0 3.7183936 -3.7555828 119.911255)">
        <path d="M2.44 5.59C 2.4533334 5.4700003 2.5000002 5.3666673 2.5800002 5.28C 2.6333334 5.2222223 2.746667 5.178889 2.92 5.15L2.92 5.15L6.38 5.15C 6.626667 5.15 6.786667 5.2766666 6.86 5.53L6.86 5.53L9.58 14.610001L12.32 5.5300007C 12.413334 5.2766676 12.583334 5.1500006 12.83 5.1500006L12.83 5.1500006L16.25 5.1500006C 16.37 5.1500006 16.478334 5.1916676 16.575 5.2750006C 16.639446 5.330556 16.694447 5.435556 16.740002 5.5900006C 16.973335 7.9366674 17.21167 10.265001 17.455002 12.575001C 17.617224 14.115002 17.855556 16.443335 18.170002 19.560001L18.170002 19.560001L18.170002 19.61C 18.170002 19.87 18.023335 20 17.730001 20L17.730001 20L14.900002 20C 14.593335 20 14.433335 19.853334 14.420002 19.56L14.420002 19.56L13.550002 11.83L11.300002 19.61C 11.286669 19.676668 11.238336 19.756668 11.155002 19.85C 11.099446 19.912222 11.017779 19.958889 10.910002 19.99L10.910002 19.99L8.280002 19.99C 8.200003 19.99 8.115002 19.945 8.025002 19.855C 7.9650016 19.795 7.916668 19.713333 7.8800015 19.609999L7.8800015 19.609999L5.6300015 11.849998L4.7600017 19.559998C 4.746669 19.853333 4.583335 19.999998 4.2700014 19.999998L4.2700014 19.999998L1.4400015 19.999998C 1.1533349 19.999998 1.0100014 19.853333 1.0100014 19.559998L1.0100014 19.559998L2.44 5.59zM30.42 18.48C 29.833336 19.02 29.173336 19.441666 28.44 19.744999C 27.95111 19.947222 27.174446 20.098888 26.11 20.199999C 25.196667 20.199999 24.333334 20.033333 23.52 19.699999C 22.97778 19.477776 22.264446 19.01611 21.380001 18.314999C 20.495558 17.613888 20.008892 16.918888 19.920002 16.23C 19.831114 15.541111 19.651114 14.671111 19.380001 13.62C 19.380001 13.033334 19.451668 12.465 19.595001 11.915C 19.690557 11.548334 19.89389 11.033334 20.205002 10.37C 20.516113 9.706667 20.836113 9.265 21.165 9.045C 21.493889 8.825001 21.915556 8.4800005 22.43 8.01C 22.944447 7.5400004 23.451113 7.316667 23.95 7.34C 24.44889 7.3633337 25.025558 7.283334 25.68 7.1000004C 26.233334 7.1000004 26.77 7.1733336 27.29 7.32C 27.63667 7.417778 28.125002 7.624445 28.755001 7.94C 29.385002 8.255556 29.803335 8.575556 30.01 8.9C 30.216667 9.224443 30.543333 9.632777 30.99 10.125C 31.436666 10.617224 31.648335 11.090557 31.625 11.545C 31.60167 11.999444 31.676668 12.517777 31.85 13.1C 31.85 13.446668 31.845001 13.730001 31.835001 13.950001C 31.828335 14.096667 31.776669 14.2716675 31.68 14.475C 31.583336 14.678335 31.428335 14.768335 31.215 14.745001C 31.001669 14.721668 30.683334 14.746668 30.26 14.820001L30.26 14.820001L23.060001 14.820001C 23.126669 15.246668 23.26167 15.603334 23.465002 15.89C 23.60056 16.081112 23.835558 16.309444 24.170002 16.575C 24.504448 16.840557 24.78778 16.962225 25.020002 16.94C 25.252224 16.917778 25.535559 16.954445 25.870003 17.050001C 26.110004 17.050001 26.35667 17.025002 26.610003 16.975C 26.77889 16.941666 27.023891 16.875 27.345003 16.775C 27.666117 16.675001 27.882782 16.578335 27.995003 16.484999C 28.107224 16.391666 28.265558 16.276665 28.470003 16.14C 28.576672 16.053333 28.668339 15.988335 28.745003 15.945C 28.796112 15.916111 28.87778 15.8944435 28.990004 15.88C 29.10223 15.865557 29.190563 15.895557 29.255003 15.97C 29.319447 16.044445 29.421112 16.131111 29.560003 16.23L29.560003 16.23L30.620003 17.43C 30.693336 17.516666 30.740004 17.595001 30.760002 17.665C 30.773335 17.711668 30.783335 17.783335 30.790003 17.880001C 30.790003 18.013336 30.753336 18.128336 30.680002 18.225C 30.631113 18.289444 30.544447 18.374443 30.420002 18.48zM25.61 10.15C 25.350002 10.15 25.098335 10.201666 24.855001 10.304999C 24.69278 10.373888 24.464447 10.512222 24.170002 10.719999C 23.875559 10.927777 23.683891 11.124444 23.595001 11.309999C 23.506111 11.495556 23.367779 11.718889 23.18 11.98L23.18 11.98L28.29 11.98C 28.150002 11.719999 27.998335 11.48 27.835001 11.259999C 27.726112 11.113333 27.539446 10.92 27.275002 10.679999C 27.01056 10.440001 26.77056 10.309999 26.555002 10.289999C 26.339447 10.269999 26.024448 10.223332 25.610003 10.149999zM42.07 16.09C 42.163334 16.023335 42.251667 15.981667 42.335 15.965C 42.390556 15.95389 42.455555 15.945557 42.53 15.940001C 42.643333 15.940001 42.746666 15.963334 42.84 16.01C 42.90222 16.041111 42.99889 16.141111 43.13 16.31L43.13 16.31L44.25 18C 44.283333 18.053333 44.315002 18.113335 44.345 18.18C 44.365 18.224445 44.38 18.277779 44.39 18.34C 44.39 18.493334 44.341667 18.618334 44.245 18.715C 44.180553 18.779446 44.075554 18.864445 43.93 18.97C 43.383335 19.35 42.785004 19.655 42.135002 19.885C 41.701668 20.038334 41.013336 20.153334 40.070004 20.23C 39.47 20.23 38.89167 20.153334 38.335003 20C 37.963894 19.897778 37.44556 19.679445 36.780003 19.345C 36.11445 19.010555 35.674446 18.670555 35.460003 18.324999C 35.24556 17.979445 34.90556 17.537777 34.440002 16.999998C 33.97445 16.46222 33.756115 15.937221 33.785004 15.424998C 33.813896 14.912777 33.73556 14.324444 33.550003 13.659998C 33.36445 12.995554 33.44278 12.405554 33.785004 11.8899975C 34.127228 11.374443 34.345562 10.8494425 34.440002 10.314998C 34.534447 9.780553 34.874443 9.340553 35.460003 8.994998C 36.045563 8.649444 36.48556 8.31111 36.780003 7.979998C 37.074444 7.6488867 37.592777 7.43222 38.335003 7.329998C 39.07723 7.2277765 39.655563 7.1511097 40.070004 7.099998C 40.79667 7.0999985 41.468338 7.196665 42.085003 7.389998C 42.496113 7.518887 43.074448 7.805554 43.820004 8.249998L43.820004 8.249998L43.790005 8.219998C 43.936672 8.306665 44.053337 8.408332 44.140003 8.524999C 44.197784 8.602777 44.241116 8.747777 44.270004 8.959999C 44.270004 9.08 44.230003 9.203333 44.150005 9.329999L44.150005 9.329999L43.260006 10.839999C 43.07334 11.166666 42.846676 11.329999 42.580006 11.329999C 42.520008 11.329999 42.446674 11.314999 42.360004 11.284999C 42.302227 11.264999 42.20556 11.213333 42.070004 11.129999C 41.776672 10.9366665 41.461674 10.778333 41.125004 10.654999C 40.90056 10.572777 40.542225 10.511109 40.050003 10.469998C 39.630005 10.469998 39.24334 10.554998 38.890003 10.724998C 38.65445 10.838332 38.352783 11.069999 37.985004 11.419998C 37.617233 11.769999 37.422234 12.109999 37.400005 12.439999C 37.377785 12.7699995 37.307785 13.176666 37.190006 13.659999C 37.19001 14.099999 37.26001 14.511665 37.400005 14.894999C 37.49334 15.150555 37.68834 15.482221 37.985004 15.889998C 38.281677 16.297775 38.583344 16.519444 38.890003 16.554998C 39.19667 16.590555 39.583336 16.672222 40.050003 16.8C 40.430004 16.8 40.78667 16.733334 41.120003 16.599998C 41.342224 16.511108 41.65889 16.341108 42.070004 16.089998zM50.13 8.63C 50.256668 8.443334 50.410004 8.258333 50.59 8.075C 50.71 7.952778 50.921665 7.789445 51.225 7.585C 51.528336 7.380556 51.805 7.2638893 52.055 7.235C 52.305 7.2061114 52.65667 7.1611114 53.11 7.1C 53.870003 7.1000004 54.548336 7.246667 55.145 7.54C 55.542778 7.7355556 56.049446 8.135555 56.665 8.74C 57.280563 9.344444 57.59723 9.936111 57.615 10.514999C 57.632782 11.093888 57.741116 11.815555 57.940002 12.679999L57.940002 12.679999L57.940002 19.23C 57.940006 19.483334 57.885006 19.675 57.775 19.805C 57.701668 19.891668 57.526665 19.956669 57.25 20L57.25 20L54.94 20C 54.653336 20 54.456665 19.951668 54.35 19.855C 54.278893 19.790554 54.225555 19.60222 54.19 19.289999L54.19 19.289999L54.19 12.679998C 54.190002 12.3933325 54.135002 12.126665 54.024998 11.879998C 53.95166 11.715553 53.80333 11.500554 53.579998 11.234999C 53.35667 10.969444 53.138336 10.826111 52.925 10.804998C 52.711666 10.783887 52.446667 10.73222 52.13 10.649999C 51.890003 10.65 51.655003 10.698333 51.425 10.794999C 51.271664 10.859444 51.065 10.99611 50.805 11.204999C 50.545006 11.413888 50.39167 11.625555 50.345 11.839999C 50.298332 12.054444 50.22667 12.327778 50.13 12.659999L50.13 12.659999L50.13 19.259998C 50.130005 19.373333 50.108337 19.486666 50.065002 19.599998C 50.036114 19.675554 49.971115 19.762222 49.870003 19.859999C 49.78334 19.913334 49.70167 19.95 49.625004 19.97C 49.573895 19.983334 49.48556 19.993332 49.360004 20L49.360004 20L47.100006 20C 46.81334 20 46.606674 19.93 46.480007 19.79C 46.39556 19.696669 46.33223 19.510002 46.29001 19.230001L46.29001 19.230001L46.29001 11.090001L46.29001 11.020001L46.29001 8.040001L46.29001 7.9900007L46.29001 4.2800007C 46.29001 4.053334 46.35334 3.8700008 46.480007 3.7300007C 46.564453 3.6366675 46.77112 3.5666676 47.100006 3.5200007L47.100006 3.5200007L49.360004 3.5200007C 49.51334 3.520001 49.683342 3.5733342 49.870003 3.6800008C 49.956673 3.7400007 50.02167 3.8266673 50.065002 3.9400008C 50.09389 4.0155563 50.115555 4.122223 50.13 4.2600007L50.13 4.2600007L50.13 8.630001zM61.11 5.32C 61.11 5.1133337 61.178337 4.9583335 61.315002 4.855C 61.406116 4.786111 61.601116 4.6877775 61.9 4.56L61.9 4.56L64.17 3.77C 64.20334 3.7633333 64.235 3.76 64.265 3.76L64.265 3.76L64.35 3.76C 64.596664 3.76 64.76167 3.8316667 64.845 3.975C 64.90056 4.0705557 64.94222 4.2588887 64.97 4.54L64.97 4.54L64.96 7.69L66.63 7.69C 66.84333 7.6900005 67.01666 7.753334 67.149994 7.88C 67.238884 7.964444 67.30555 8.154444 67.34999 8.45L67.34999 8.45L67.34999 10.38C 67.34999 10.66 67.283325 10.865 67.149994 10.995C 67.06111 11.081667 66.88777 11.1466675 66.63 11.19L66.63 11.19L64.96 11.19L64.97 19.23C 64.97 19.483334 64.89667 19.675 64.75 19.805C 64.65222 19.891668 64.44889 19.956669 64.14 20L64.14 20L61.88 20C 61.36667 20 61.11 19.743334 61.11 19.23L61.11 19.23L61.100002 11.19L60.370003 11.19C 59.856674 11.190001 59.600006 10.92 59.600002 10.379999L59.600002 10.379999L59.600002 8.449999C 59.600006 7.9433327 59.856674 7.689999 60.370003 7.6899986L60.370003 7.6899986L61.100002 7.6899986zM81.69 19.26C 81.69 19.373333 81.670006 19.481667 81.630005 19.585001C 81.60334 19.65389 81.536674 19.735558 81.43001 19.830002C 81.356674 19.903336 81.27001 19.950003 81.170006 19.970001C 81.10334 19.983334 81.01667 19.993334 80.91 20.000002L80.91 20.000002L78.94 20.000002C 78.8 20.000002 78.686676 19.981668 78.600006 19.945002C 78.54223 19.920557 78.47223 19.86889 78.39001 19.79C 78.30779 19.711113 78.26279 19.629444 78.255005 19.545C 78.24722 19.460556 78.20889 19.355556 78.14001 19.23L78.14001 19.23L77.850006 18.48C 77.67001 18.66 77.47334 18.851667 77.26001 19.055C 77.11779 19.190556 76.88279 19.37889 76.55501 19.62C 76.227234 19.861113 75.9489 20.006113 75.72001 20.055C 75.49113 20.10389 75.17113 20.162222 74.76001 20.23C 74.15334 20.23 73.57167 20.153334 73.01501 20C 72.643906 19.897778 72.1239 19.679445 71.45501 19.345C 70.78612 19.010555 70.347786 18.670555 70.14001 18.324999C 69.93223 17.979445 69.593895 17.537777 69.12501 16.999998C 68.65612 16.46222 68.43779 15.937221 68.47001 15.424998C 68.50223 14.912777 68.42557 14.324444 68.240005 13.659998C 68.240005 12.733332 68.41001 11.871664 68.75001 11.074998C 68.97668 10.543888 69.44001 9.850554 70.14001 8.994998C 70.84001 8.139442 71.530014 7.676109 72.21001 7.604998C 72.89001 7.5338874 73.740005 7.365554 74.76001 7.099998C 75.17335 7.0999985 75.553345 7.161665 75.90001 7.284998C 76.13112 7.3672204 76.44612 7.528887 76.84501 7.769998C 77.243904 8.011109 77.500565 8.237776 77.615005 8.449998C 77.72945 8.66222 77.93445 8.918886 78.23 9.219997L78.23 9.219997L78.62 8.009997C 78.686676 7.843331 78.74167 7.708331 78.785 7.604997C 78.813896 7.536108 78.860565 7.4594417 78.925 7.374997C 78.98945 7.2905536 79.05112 7.2572203 79.11 7.274997C 79.16889 7.292775 79.272224 7.284442 79.42 7.249997L79.42 7.249997L80.909996 7.249997C 80.98333 7.249997 81.07 7.2599974 81.17 7.2799973C 81.236664 7.2933307 81.32333 7.3399973 81.43 7.419997C 81.52333 7.493331 81.59 7.5766644 81.63 7.669997C 81.65666 7.732219 81.67667 7.838886 81.689995 7.9899974L81.689995 7.9899974L81.689995 19.259998zM71.84 13.66C 71.84 14.1 71.90833 14.511667 72.045 14.8949995C 72.13611 15.150555 72.33111 15.482222 72.63 15.889999C 72.92889 16.29778 73.23389 16.519445 73.545 16.555C 73.85611 16.590557 74.251114 16.672222 74.729996 16.800001C 75.17667 16.800001 75.59166 16.718334 75.975 16.555C 76.23056 16.446112 76.56389 16.224445 76.975 15.89C 77.38611 15.555557 77.60777 15.22389 77.64 14.895C 77.672226 14.566112 77.75223 14.154446 77.88 13.660001C 77.88 13.233334 77.8 12.826668 77.64 12.440001C 77.53333 12.182222 77.31166 11.842222 76.975 11.42C 76.638336 10.997778 76.30501 10.766111 75.975 10.725C 75.645004 10.683889 75.229996 10.59889 74.729996 10.47C 74.29666 10.470001 73.901665 10.555 73.545 10.725C 73.30722 10.838334 73.00222 11.070001 72.63 11.42C 72.257774 11.77 72.062775 12.110001 72.045 12.440001C 72.02722 12.770002 71.95889 13.176668 71.84 13.660001z" stroke="none" fill="#FFFFFF" fill-rule="nonzero" />
	</g>
</g>
</svg>
